<svg width="11" height="22" viewBox="0 0 11 22" fill="none" xmlns="http://www.w3.org/2000/svg">
<path d="M10.7157 10.551L0.298109 0.626749C0.270888 0.60061 0.238173 0.584366 0.203724 0.579882C0.169274 0.575398 0.134486 0.582856 0.103355 0.601399C0.0722236 0.619943 0.0460123 0.64882 0.0277305 0.684714C0.00944857 0.720608 -0.000162254 0.762064 2.07249e-06 0.804319V2.98308C2.07249e-06 3.12119 0.0531531 3.25366 0.140968 3.33822L8.46024 11.2612L0.140968 19.1843C0.0508422 19.2688 2.07249e-06 19.4013 2.07249e-06 19.5394V21.7182C2.07249e-06 21.907 0.177942 22.0113 0.298109 21.8957L10.7157 11.9715C10.8042 11.8873 10.8759 11.7795 10.9251 11.6564C10.9744 11.5334 11 11.3982 11 11.2612C11 11.1243 10.9744 10.9891 10.9251 10.866C10.8759 10.743 10.8042 10.6352 10.7157 10.551Z" fill="black"/>
</svg>
