<svg width="11" height="22" viewBox="0 0 11 22" fill="none" xmlns="http://www.w3.org/2000/svg">
<path d="M0.28431 11.972L10.7019 21.8962C10.7291 21.9223 10.7618 21.9386 10.7963 21.9431C10.8307 21.9476 10.8655 21.9401 10.8966 21.9216C10.9278 21.903 10.954 21.8741 10.9723 21.8382C10.9906 21.8023 11.0002 21.7609 11 21.7186L11 19.5399C11 19.4018 10.9468 19.2693 10.859 19.1847L2.53976 11.2617L10.859 3.3387C10.9492 3.25414 11 3.12166 11 2.98355L11 0.804794C11 0.61595 10.8221 0.511662 10.7019 0.627224L0.284311 10.5514C0.195768 10.6357 0.12414 10.7434 0.0748741 10.8665C0.0256083 10.9896 1.15105e-06 11.1247 1.13648e-06 11.2617C1.12191e-06 11.3987 0.0256082 11.5338 0.0748741 11.6569C0.12414 11.78 0.195768 11.8878 0.28431 11.972Z" fill="black"/>
</svg>
